<svg xmlns="http://www.w3.org/2000/svg" width="298.19" height="35" viewBox="0 0 298.19 35"><rect class="svg__rect" x="0" y="0" width="138.95" height="35" fill="#31C4F3"/><rect class="svg__rect" x="136.95" y="0" width="161.24" height="35" fill="#389AD5"/><path class="svg__text" d="M15.60 22L13.63 13.47L15.10 13.47L16.43 19.88L18.06 13.47L19.30 13.47L20.91 19.89L22.22 13.47L23.69 13.47L21.72 22L20.31 22L18.68 15.77L17.02 22L15.60 22ZM27.49 18.00L27.49 18.00L27.49 17.52Q27.49 16.28 27.94 15.32Q28.38 14.37 29.18 13.86Q29.99 13.35 31.03 13.35Q32.08 13.35 32.88 13.85Q33.69 14.35 34.13 15.29Q34.57 16.23 34.57 17.48L34.57 17.48L34.57 17.96Q34.57 19.21 34.14 20.16Q33.71 21.10 32.90 21.61Q32.09 22.12 31.05 22.12L31.05 22.12Q30.01 22.12 29.20 21.61Q28.39 21.10 27.94 20.17Q27.50 19.23 27.49 18.00ZM28.98 17.46L28.98 17.96Q28.98 19.36 29.52 20.13Q30.07 20.90 31.05 20.90L31.05 20.90Q32.03 20.90 32.56 20.15Q33.09 19.40 33.09 17.96L33.09 17.96L33.09 17.51Q33.09 16.09 32.55 15.34Q32.02 14.58 31.03 14.58L31.03 14.58Q30.07 14.58 29.53 15.33Q28.99 16.09 28.98 17.46L28.98 17.46ZM40.52 22L39.04 22L39.04 13.47L42.04 13.47Q43.51 13.47 44.32 14.13Q45.12 14.79 45.12 16.05L45.12 16.05Q45.12 16.90 44.71 17.48Q44.29 18.06 43.56 18.37L43.56 18.37L45.47 21.92L45.47 22L43.88 22L42.17 18.71L40.52 18.71L40.52 22ZM40.52 14.66L40.52 17.52L42.04 17.52Q42.79 17.52 43.22 17.15Q43.64 16.77 43.64 16.11L43.64 16.11Q43.64 15.43 43.25 15.05Q42.86 14.68 42.08 14.66L42.08 14.66L40.52 14.66ZM51.00 22L49.51 22L49.51 13.47L51.00 13.47L51.00 17.47L51.82 16.46L54.31 13.47L56.11 13.47L52.94 17.25L56.29 22L54.53 22L51.96 18.31L51.00 19.34L51.00 22ZM65.64 22L60.07 22L60.07 13.47L65.60 13.47L65.60 14.66L61.55 14.66L61.55 17.02L65.05 17.02L65.05 18.19L61.55 18.19L61.55 20.82L65.64 20.82L65.64 22ZM71.32 22L69.84 22L69.84 13.47L72.84 13.47Q74.32 13.47 75.12 14.13Q75.92 14.79 75.92 16.05L75.92 16.05Q75.92 16.90 75.51 17.48Q75.10 18.06 74.36 18.37L74.36 18.37L76.27 21.92L76.27 22L74.69 22L72.97 18.71L71.32 18.71L71.32 22ZM71.32 14.66L71.32 17.52L72.85 17.52Q73.60 17.52 74.02 17.15Q74.44 16.77 74.44 16.11L74.44 16.11Q74.44 15.43 74.05 15.05Q73.66 14.68 72.89 14.66L72.89 14.66L71.32 14.66ZM87.78 22L86.29 22L86.29 13.47L89.29 13.47Q90.77 13.47 91.57 14.13Q92.38 14.79 92.38 16.05L92.38 16.05Q92.38 16.90 91.96 17.48Q91.55 18.06 90.81 18.37L90.81 18.37L92.73 21.92L92.73 22L91.14 22L89.43 18.71L87.78 18.71L87.78 22ZM87.78 14.66L87.78 17.52L89.30 17.52Q90.05 17.52 90.47 17.15Q90.89 16.77 90.89 16.11L90.89 16.11Q90.89 15.43 90.50 15.05Q90.11 14.68 89.34 14.66L89.34 14.66L87.78 14.66ZM96.64 19.16L96.64 19.16L96.64 13.47L98.11 13.47L98.11 19.18Q98.11 20.03 98.55 20.48Q98.98 20.93 99.82 20.93L99.82 20.93Q101.53 20.93 101.53 19.13L101.53 19.13L101.53 13.47L103.01 13.47L103.01 19.17Q103.01 20.53 102.14 21.32Q101.27 22.12 99.82 22.12L99.82 22.12Q98.36 22.12 97.50 21.33Q96.64 20.55 96.64 19.16ZM107.15 19.42L107.15 19.42L108.63 19.42Q108.63 20.15 109.11 20.55Q109.59 20.95 110.49 20.95L110.49 20.95Q111.26 20.95 111.65 20.63Q112.04 20.32 112.04 19.80L112.04 19.80Q112.04 19.24 111.64 18.94Q111.25 18.63 110.22 18.32Q109.19 18.01 108.58 17.63L108.58 17.63Q107.41 16.90 107.41 15.72L107.41 15.72Q107.41 14.69 108.25 14.02Q109.09 13.35 110.43 13.35L110.43 13.35Q111.32 13.35 112.02 13.68Q112.72 14.01 113.12 14.61Q113.52 15.22 113.52 15.96L113.52 15.96L112.04 15.96Q112.04 15.29 111.62 14.91Q111.20 14.54 110.42 14.54L110.42 14.54Q109.70 14.54 109.29 14.85Q108.89 15.16 108.89 15.71L108.89 15.71Q108.89 16.18 109.33 16.50Q109.76 16.81 110.76 17.10Q111.75 17.40 112.36 17.78Q112.96 18.16 113.24 18.65Q113.52 19.13 113.52 19.79L113.52 19.79Q113.52 20.86 112.70 21.49Q111.89 22.12 110.49 22.12L110.49 22.12Q109.56 22.12 108.78 21.77Q108.01 21.43 107.58 20.83Q107.15 20.22 107.15 19.42ZM119.29 22L117.81 22L117.81 13.47L119.29 13.47L119.29 17.02L123.11 17.02L123.11 13.47L124.58 13.47L124.58 22L123.11 22L123.11 18.21L119.29 18.21L119.29 22Z" fill="#FFFFFF"/><path class="svg__text" d="M153.47 22L151.14 22L151.14 13.60L153.09 13.60L156.80 18.07L156.80 13.60L159.13 13.60L159.13 22L157.18 22L153.47 17.52L153.47 22ZM163.86 17.80L163.86 17.80Q163.86 16.55 164.47 15.55Q165.07 14.56 166.13 14.00Q167.20 13.43 168.53 13.43L168.53 13.43Q169.86 13.43 170.92 14.00Q171.99 14.56 172.59 15.55Q173.20 16.55 173.20 17.80L173.20 17.80Q173.20 19.05 172.59 20.04Q171.99 21.04 170.92 21.60Q169.86 22.17 168.53 22.17L168.53 22.17Q167.20 22.17 166.13 21.60Q165.07 21.04 164.47 20.04Q163.86 19.05 163.86 17.80ZM166.26 17.80L166.26 17.80Q166.26 18.51 166.56 19.05Q166.86 19.60 167.38 19.90Q167.90 20.20 168.53 20.20L168.53 20.20Q169.17 20.20 169.68 19.90Q170.20 19.60 170.50 19.05Q170.80 18.51 170.80 17.80L170.80 17.80Q170.80 17.09 170.50 16.54Q170.20 16 169.68 15.70Q169.17 15.40 168.53 15.40L168.53 15.40Q167.89 15.40 167.38 15.70Q166.86 16 166.56 16.54Q166.26 17.09 166.26 17.80ZM179.72 15.48L177.14 15.48L177.14 13.60L184.66 13.60L184.66 15.48L182.09 15.48L182.09 22L179.72 22L179.72 15.48ZM198.38 22L196.00 22L196.00 13.60L198.38 13.60L198.38 22ZM205.89 22L203.56 22L203.56 13.60L205.51 13.60L209.22 18.07L209.22 13.60L211.55 13.60L211.55 22L209.60 22L205.89 17.52L205.89 22ZM216.28 17.80L216.28 17.80Q216.28 16.54 216.88 15.54Q217.48 14.55 218.53 13.99Q219.58 13.43 220.90 13.43L220.90 13.43Q222.05 13.43 222.98 13.84Q223.90 14.25 224.51 15.02L224.51 15.02L223.00 16.39Q222.19 15.40 221.02 15.40L221.02 15.40Q220.34 15.40 219.80 15.70Q219.27 16 218.97 16.54Q218.68 17.09 218.68 17.80L218.68 17.80Q218.68 18.51 218.97 19.05Q219.27 19.60 219.80 19.90Q220.34 20.20 221.02 20.20L221.02 20.20Q222.19 20.20 223.00 19.22L223.00 19.22L224.51 20.58Q223.91 21.35 222.98 21.76Q222.05 22.17 220.90 22.17L220.90 22.17Q219.58 22.17 218.53 21.61Q217.48 21.05 216.88 20.05Q216.28 19.06 216.28 17.80ZM235.44 22L229.05 22L229.05 13.60L231.43 13.60L231.43 20.11L235.44 20.11L235.44 22ZM239.78 18.26L239.78 18.26L239.78 13.60L242.16 13.60L242.16 18.19Q242.16 20.20 243.76 20.20L243.76 20.20Q245.34 20.20 245.34 18.19L245.34 18.19L245.34 13.60L247.68 13.60L247.68 18.26Q247.68 20.13 246.64 21.15Q245.60 22.17 243.73 22.17L243.73 22.17Q241.86 22.17 240.82 21.15Q239.78 20.13 239.78 18.26ZM256.74 22L252.77 22L252.77 13.60L256.74 13.60Q258.12 13.60 259.19 14.12Q260.26 14.63 260.85 15.58Q261.43 16.53 261.43 17.80L261.43 17.80Q261.43 19.07 260.85 20.02Q260.26 20.97 259.19 21.48Q258.12 22 256.74 22L256.74 22ZM255.15 15.50L255.15 20.10L256.65 20.10Q257.73 20.10 258.38 19.49Q259.03 18.88 259.03 17.80L259.03 17.80Q259.03 16.72 258.38 16.11Q257.73 15.50 256.65 15.50L256.65 15.50L255.15 15.50ZM272.91 22L266.16 22L266.16 13.60L272.76 13.60L272.76 15.44L268.52 15.44L268.52 16.85L272.25 16.85L272.25 18.63L268.52 18.63L268.52 20.17L272.91 20.17L272.91 22ZM281.68 22L277.71 22L277.71 13.60L281.68 13.60Q283.07 13.60 284.13 14.12Q285.20 14.63 285.79 15.58Q286.38 16.53 286.38 17.80L286.38 17.80Q286.38 19.07 285.79 20.02Q285.20 20.97 284.13 21.48Q283.07 22 281.68 22L281.68 22ZM280.09 15.50L280.09 20.10L281.59 20.10Q282.67 20.10 283.32 19.49Q283.98 18.88 283.98 17.80L283.98 17.80Q283.98 16.72 283.32 16.11Q282.67 15.50 281.59 15.50L281.59 15.50L280.09 15.50Z" fill="#FFFFFF" x="149.95"/></svg>